<svg version="1.1" id="Layer_1" xmlns="http://www.w3.org/2000/svg" xmlns:xlink="http://www.w3.org/1999/xlink" x="0px" y="0px"
	 width="100%" viewBox="0 0 1024 1024" enable-background="new 0 0 1024 1024" xml:space="preserve">
<path fill="#000000" opacity="1.000000" stroke="none" 
	d="
M391.664398,838.474976 
	C315.006592,809.269775 256.010590,759.452209 214.048721,689.606934 
	C190.624741,650.617859 176.138687,608.317200 169.529160,563.272156 
	C166.522675,542.782410 164.914764,522.222229 165.779358,501.566284 
	C167.894470,451.034210 179.552902,402.839478 202.335800,357.524872 
	C233.357468,295.823639 278.976410,247.735046 338.497986,212.981628 
	C377.896759,189.977524 420.299225,175.371368 465.693268,169.527985 
	C492.741669,166.046173 519.862427,165.185944 546.906799,167.913864 
	C614.865540,174.768799 676.007935,198.982468 729.525208,241.772217 
	C777.272461,279.948547 812.634338,327.401184 835.468323,384.089081 
	C847.529114,414.031433 855.174988,445.142181 858.348206,477.285004 
	C866.672302,561.603455 847.243408,639.225891 799.555969,709.036865 
	C756.328674,772.318420 697.836731,816.688599 625.189331,841.633362 
	C594.842041,852.053650 563.461365,857.798218 531.308472,859.462585 
	C483.423218,861.941345 437.093903,854.662048 391.664398,838.474976 
M275.155762,271.655243 
	C257.764862,288.553802 242.252075,307.016357 229.096954,327.402161 
	C187.230057,392.281158 169.065155,463.122864 175.041824,540.238525 
	C177.256668,568.816467 183.072876,596.548584 192.469330,623.496216 
	C212.076645,679.727112 244.366440,727.597839 288.901886,767.127502 
	C330.041626,803.643127 377.395935,828.546265 430.761963,841.791687 
	C474.593536,852.670715 518.942993,854.013367 563.597473,847.861328 
	C609.332520,841.560486 651.514160,825.395264 690.808044,801.533630 
	C728.755920,778.489441 760.575806,748.578247 786.649048,712.771667 
	C824.161987,661.255005 845.956848,603.726257 850.851074,539.991516 
	C853.182312,509.633057 852.302185,479.393402 846.308044,449.517303 
	C833.273438,384.550293 804.496338,327.383972 758.522583,279.591125 
	C694.452881,212.986359 615.706787,178.074448 523.370056,174.506989 
	C490.102753,173.221695 457.239075,177.045471 425.036835,185.934479 
	C368.002472,201.678085 317.980255,229.653641 275.155762,271.655243 
z"/>
<path fill="#000000" opacity="1.000000" stroke="none" 
	d="
M959.163269,977.827942 
	C955.636353,974.644775 951.807556,972.704956 947.700378,971.255188 
	C946.555298,970.850952 945.531372,970.274170 945.501892,968.879150 
	C945.477295,967.712036 946.280945,967.073181 947.273254,966.757324 
	C957.568604,963.481384 964.142761,956.588379 967.315979,946.319214 
	C967.559570,945.530945 968.314209,945.012390 970.307312,945.060669 
	C972.293457,950.029297 974.353394,955.587097 978.747498,959.777710 
	C982.968201,963.802917 988.625122,965.414062 993.333740,968.112061 
	C992.604004,971.199219 990.535339,971.390259 988.928589,971.986511 
	C980.823181,974.994751 975.085449,980.272522 972.228699,988.580505 
	C971.625244,990.335327 971.325256,992.920166 968.711792,992.787231 
	C966.416504,992.670349 966.360718,990.241760 965.783875,988.626343 
	C964.368042,984.661987 962.566711,980.976868 959.163269,977.827942 
z"/>
<path fill="#000000" opacity="1.000000" stroke="none" 
	d="
M461.918823,466.039337 
	C457.250000,456.698425 452.752899,447.687927 448.278870,438.723663 
	C445.719208,439.742188 445.244171,441.457520 444.528046,442.897675 
	C438.448181,455.124664 432.323853,467.331543 426.442413,479.653992 
	C424.676880,483.352997 422.367737,484.913116 418.159393,485.487976 
	C401.763275,487.727783 386.593506,493.463623 372.944092,502.985352 
	C371.354309,504.094330 369.974152,505.702911 366.231628,505.697205 
	C393.243561,453.349457 419.910156,401.670990 446.576721,349.992523 
	C447.145660,349.923798 447.714569,349.855042 448.283478,349.786285 
	C490.955322,432.431610 533.627136,515.076904 576.218506,597.566406 
	C574.275024,599.668030 572.333740,599.162231 570.587524,599.169800 
	C559.092285,599.219543 547.592957,599.025208 536.103088,599.278137 
	C531.739929,599.374146 529.556519,597.560425 527.715515,593.817322 
	C518.748169,575.585632 509.459717,557.511902 500.481201,539.285583 
	C498.632690,535.533081 496.370575,533.974121 492.043457,534.001099 
	C463.222656,534.180664 434.399628,534.167847 405.578705,533.992432 
	C401.228424,533.965942 398.675110,535.135315 396.627350,539.212585 
	C387.285767,557.812744 377.561218,576.220154 368.069153,594.745422 
	C366.654907,597.505493 365.057068,599.216858 361.642456,599.184509 
	C349.148743,599.066101 336.652618,599.225708 324.158051,599.157837 
	C319.584381,599.132996 319.076172,598.147278 321.135620,594.185608 
	C329.354614,578.375061 337.126434,562.311096 345.900787,546.814758 
	C363.379089,515.946655 390.349030,499.010132 425.377380,494.694885 
	C439.644928,492.937225 454.000946,494.132019 468.310913,493.728424 
	C470.248627,493.673798 472.317963,494.231110 475.000702,492.236603 
	C470.750153,483.720245 466.420349,475.045013 461.918823,466.039337 
z"/>
<path fill="#000000" opacity="1.000000" stroke="none" 
	d="
M636.251831,412.709717 
	C629.851868,409.151215 623.331116,407.259247 616.377808,407.195648 
	C583.725220,406.896973 551.072083,406.612640 518.418579,406.490906 
	C514.854065,406.477600 512.695496,405.498077 510.766876,402.370361 
	C504.648254,392.447632 498.140106,382.765594 491.827820,372.961334 
	C490.680450,371.179291 489.083984,369.575836 489.022552,367.243958 
	C490.371521,365.385162 492.334503,365.911285 494.088776,365.911743 
	C532.747009,365.922089 571.405701,365.859283 610.063232,366.049072 
	C623.592468,366.115509 637.072449,367.248260 649.628052,372.979828 
	C677.144897,385.541168 691.071167,407.470856 693.162231,437.220734 
	C694.119019,450.833008 692.194214,464.125824 687.304810,476.948822 
	C679.255798,498.058289 663.970581,511.312408 642.780518,518.215332 
	C641.211853,518.726318 639.620728,519.168274 636.717957,520.038940 
	C660.888306,546.242920 684.542236,571.886963 708.144348,597.474792 
	C706.208740,599.646118 704.608643,599.169312 703.197449,599.173035 
	C688.700684,599.211365 674.202393,599.075989 659.707764,599.253540 
	C655.437683,599.305786 652.782532,597.614258 650.028870,594.424011 
	C632.721619,574.373169 615.194397,554.511414 597.663635,534.654480 
	C583.771912,518.919434 569.767639,503.283813 555.832153,487.587341 
	C555.312744,487.002319 554.991333,486.241425 554.596252,485.593018 
	C556.224670,482.966766 558.612183,483.922394 560.597290,483.912109 
	C578.259705,483.820618 595.922485,483.817780 613.585205,483.809235 
	C618.111938,483.807037 622.569763,483.271332 626.882935,481.920563 
	C646.591125,475.748596 653.822205,460.060394 652.450623,441.259644 
	C651.581848,429.352234 647.485352,419.204468 636.251831,412.709717 
z"/>
<path fill="#000000" opacity="1.000000" stroke="none" 
	d="
M395.474335,643.404541 
	C395.049683,642.086609 394.745728,641.138184 394.493073,640.176270 
	C394.188446,639.016663 393.927063,637.740051 395.375946,637.213806 
	C397.032227,636.612244 397.827087,637.772339 398.300140,639.109192 
	C399.890533,643.603760 401.433899,648.114990 403.509613,654.103821 
	C405.296417,649.188782 406.465851,645.640564 407.886749,642.196045 
	C408.655792,640.331665 408.384003,637.218201 411.146973,637.191101 
	C414.205261,637.161011 413.945160,640.446655 414.746185,642.447144 
	C416.131561,645.906982 417.234589,649.479858 418.747589,653.846619 
	C421.567688,649.018921 421.908325,644.458923 423.558167,640.375671 
	C424.225586,638.723816 424.607941,636.292358 427.065857,637.290100 
	C429.180450,638.148560 427.884308,640.173828 427.432098,641.664246 
	C425.648926,647.541077 423.826782,653.406738 421.940033,659.250977 
	C421.498474,660.618774 421.150177,662.321411 419.185883,662.321716 
	C417.217743,662.322083 416.940735,660.620056 416.437500,659.252502 
	C414.862030,654.971069 413.330109,650.673584 411.530487,645.687317 
	C408.644958,650.399719 408.202515,655.127991 406.499512,659.376221 
	C405.929596,660.797791 405.661407,662.352905 403.702209,662.325073 
	C401.801056,662.298096 401.298431,660.776855 400.818115,659.358337 
	C399.061249,654.169495 397.347626,648.966064 395.474335,643.404541 
z"/>
<path fill="#000000" opacity="1.000000" stroke="none" 
	d="
M727.974976,637.492493 
	C735.009338,641.835449 735.252258,646.637939 729.037903,652.480103 
	C729.162231,656.034912 733.322571,657.906189 733.196594,661.659485 
	C730.796021,663.051819 729.412720,661.847290 728.139038,660.059143 
	C726.885742,658.299683 725.554565,656.592957 724.200989,654.908569 
	C722.889832,653.276794 721.062805,653.082886 719.197021,653.486450 
	C716.932007,653.976379 717.444702,655.932190 717.232178,657.524170 
	C717.011841,659.174011 717.956177,661.809998 715.246704,661.826050 
	C712.804077,661.840576 712.960815,659.311401 712.932983,657.572876 
	C712.844971,652.079956 712.926331,646.584412 712.937805,641.089844 
	C712.943665,638.279297 714.178955,636.700562 717.154968,636.783752 
	C720.635620,636.881042 724.149292,636.340881 727.974976,637.492493 
M721.859863,649.108337 
	C722.683044,649.042847 723.510132,649.008179 724.328735,648.906250 
	C726.886414,648.587708 728.942688,647.481262 728.776978,644.607056 
	C728.602905,641.587097 726.102539,641.201416 723.708618,641.017273 
	C722.725098,640.941650 721.728088,641.062683 720.738220,641.043579 
	C717.352966,640.978271 717.342957,643.253662 717.236572,645.741089 
	C717.112244,648.647949 718.308899,649.689819 721.859863,649.108337 
z"/>
<path fill="#000000" opacity="1.000000" stroke="none" 
	d="
M529.340698,662.035522 
	C514.782104,662.683289 517.391113,662.713989 517.002991,651.244263 
	C516.929932,649.085693 516.951660,646.922424 516.981201,644.762085 
	C517.091187,636.715881 517.362122,636.467346 525.539795,636.660217 
	C533.227295,636.841431 538.289795,640.733215 539.210083,647.169189 
	C540.240662,654.376526 537.043945,659.381836 529.340698,662.035522 
M533.786194,654.051514 
	C534.160278,652.793945 534.729065,651.558533 534.874695,650.275085 
	C535.498779,644.777405 532.284241,641.553223 526.443420,641.027527 
	C519.899353,640.438477 521.463013,645.012146 521.291077,648.555054 
	C521.235107,649.708862 521.274902,650.867737 521.282593,652.024170 
	C521.321777,657.888916 522.650391,658.929565 528.437561,657.748657 
	C530.474731,657.332886 532.133423,656.387573 533.786194,654.051514 
z"/>
<path fill="#000000" opacity="1.000000" stroke="none" 
	d="
M474.589783,654.855591 
	C475.760040,657.321289 478.053619,658.882324 478.032410,661.634277 
	C475.665436,662.994934 474.219086,661.862244 472.931152,660.089355 
	C471.563843,658.207031 470.226593,656.293396 468.725647,654.520813 
	C467.507721,653.082458 465.737946,653.144775 464.081177,653.506836 
	C462.114960,653.936401 462.317444,655.644165 462.227783,657.120300 
	C462.177338,657.950378 462.185547,658.784424 462.119904,659.612915 
	C462.037262,660.656433 461.727753,661.692749 460.573456,661.888367 
	C459.125610,662.133667 458.301147,661.042053 458.191376,659.877380 
	C457.534760,652.911682 457.665222,645.928284 458.093781,638.954224 
	C458.157410,637.919128 458.969971,637.037170 460.048584,636.949158 
	C464.680237,636.571594 469.427856,635.833008 473.815887,637.866821 
	C478.805695,640.179749 479.810028,646.184937 476.130249,650.455444 
	C475.084900,651.668640 473.283508,652.487915 474.589783,654.855591 
M467.250488,640.407227 
	C461.842072,640.890808 461.234161,642.095886 462.986908,648.889648 
	C464.399353,649.680481 465.903992,649.190979 467.350372,649.076233 
	C469.981049,648.867493 473.173401,648.895447 473.572571,645.467957 
	C474.005310,641.751953 470.894196,641.029602 467.250488,640.407227 
z"/>
<path fill="#000000" opacity="1.000000" stroke="none" 
	d="
M324.358032,639.146484 
	C335.005127,633.559937 345.189545,638.719482 345.231689,649.395142 
	C345.253021,654.803284 343.143066,659.101501 338.027893,661.519409 
	C333.264221,663.771179 328.502106,663.833313 324.472137,660.249329 
	C320.159973,656.414429 318.835541,651.336975 320.222687,645.702576 
	C320.828522,643.241821 322.079590,641.071716 324.358032,639.146484 
M338.993469,643.660828 
	C338.508301,643.207947 338.070343,642.686829 337.530304,642.313354 
	C333.982544,639.859619 330.470062,639.560974 327.081055,642.618958 
	C323.874054,645.512756 323.036499,651.286926 325.361389,654.998901 
	C327.496216,658.407349 330.736359,659.336487 334.461517,658.470886 
	C338.478973,657.537354 341.099426,653.504822 340.910309,648.937439 
	C340.840668,647.255615 340.577972,645.625122 338.993469,643.660828 
z"/>
<path fill="#000000" opacity="1.000000" stroke="none" 
	d="
M658.800415,656.551147 
	C653.557861,662.913574 647.818298,664.424011 641.988831,661.242676 
	C636.559265,658.279541 633.931152,651.496094 635.825439,645.334167 
	C637.737366,639.114868 642.496887,636.021912 649.181641,636.654663 
	C655.437744,637.246826 659.858459,641.722839 660.408936,648.022278 
	C660.658752,650.881592 660.522827,653.674744 658.800415,656.551147 
M649.016479,640.494080 
	C643.122131,640.616150 639.802368,643.486633 639.373718,648.831970 
	C638.997009,653.529907 642.343323,657.976074 646.723206,658.596985 
	C651.035034,659.208252 655.292847,655.830750 656.282166,651.014404 
	C657.161560,646.733154 654.833801,643.074646 649.016479,640.494080 
z"/>
<path fill="#000000" opacity="1.000000" stroke="none" 
	d="
M609.910889,649.728821 
	C607.536499,653.045715 604.419373,651.863281 601.554871,651.620056 
	C599.033142,651.406006 597.309692,651.731873 597.198059,654.812744 
	C597.096069,657.627808 598.287537,658.759644 601.039185,658.641907 
	C603.531677,658.535278 606.031921,658.588562 608.528503,658.606628 
	C609.741211,658.615417 610.968750,658.774597 611.065247,660.344177 
	C611.159302,661.874146 610.098572,662.363403 608.809143,662.361938 
	C604.481873,662.357056 600.154358,662.312683 595.827454,662.250366 
	C593.970825,662.223633 593.054199,661.014343 593.035767,659.364990 
	C592.963501,652.876343 592.981079,646.385742 593.056396,639.896973 
	C593.079041,637.945679 594.239258,636.832642 596.238159,636.814209 
	C600.231812,636.777344 604.226501,636.747314 608.219543,636.800842 
	C609.593140,636.819214 611.025513,637.142761 610.919678,638.974243 
	C610.819397,640.710205 609.417603,640.999146 608.036377,641.050354 
	C605.541687,641.142944 603.043701,641.198914 600.547607,641.183777 
	C598.249634,641.169922 597.249023,642.229492 597.240051,644.525574 
	C597.230591,646.941772 598.514771,647.461548 600.666992,647.754700 
	C603.763916,648.176575 607.309326,646.160400 609.910889,649.728821 
z"/>
<path fill="#000000" opacity="1.000000" stroke="none" 
	d="
M487.231323,636.782471 
	C491.028717,636.732300 494.350311,636.670166 497.670227,636.720398 
	C499.261169,636.744446 501.359283,636.395813 501.429596,638.832581 
	C501.498505,641.221497 499.536194,641.137939 497.847534,641.157471 
	C495.357056,641.186157 492.866364,641.208191 490.375732,641.215576 
	C488.284485,641.221741 487.415161,642.293335 487.434662,644.336548 
	C487.453156,646.276428 488.115295,647.590088 490.246552,647.638367 
	C492.736176,647.694702 495.227448,647.674072 497.717834,647.703674 
	C499.122833,647.720337 500.521820,647.920898 500.523438,649.731567 
	C500.525024,651.504028 499.082336,651.820984 497.729950,651.892944 
	C495.410706,652.016296 493.083466,652.003540 490.759399,652.017578 
	C488.568542,652.030762 487.387756,652.942139 487.346497,655.293701 
	C487.300476,657.913635 488.793304,658.192566 490.898712,658.153137 
	C493.880005,658.097229 496.871735,658.189209 499.846710,658.395325 
	C501.085999,658.481140 502.056519,659.305237 501.831848,660.744324 
	C501.645355,661.938721 500.614075,662.252136 499.580505,662.256592 
	C495.264130,662.274963 490.946503,662.293579 486.631409,662.207275 
	C484.213104,662.158936 483.704865,660.432312 483.702667,658.420837 
	C483.696136,652.442871 483.710632,646.464905 483.686737,640.487000 
	C483.678253,638.366272 484.419586,636.943542 487.231323,636.782471 
z"/>
<path fill="#000000" opacity="1.000000" stroke="none" 
	d="
M553.989807,636.677002 
	C556.304443,636.701294 558.137146,636.697266 559.967102,636.766663 
	C561.340393,636.818604 562.806824,637.020874 562.882263,638.772278 
	C562.958618,640.542969 561.499451,640.902039 560.134033,640.978516 
	C557.641602,641.117981 555.138306,641.217957 552.644897,641.146790 
	C549.730286,641.063416 548.871521,642.721191 548.848328,645.218079 
	C548.821289,648.122314 551.008850,647.619690 552.764160,647.686401 
	C554.427246,647.749512 556.096741,647.657104 557.758728,647.734192 
	C559.192322,647.800659 561.163696,647.457153 561.267334,649.549988 
	C561.387024,651.966003 559.212463,651.816833 557.630920,651.888000 
	C554.839722,652.013611 552.038757,651.923218 549.315369,651.923218 
	C547.687683,658.006287 548.121216,658.613586 553.886658,658.607727 
	C556.051331,658.605530 558.216553,658.524658 560.380432,658.555420 
	C561.583374,658.572510 562.809082,658.796631 562.883667,660.355591 
	C562.959900,661.949646 561.754517,662.277405 560.540466,662.285034 
	C556.211975,662.312317 551.882629,662.286316 547.554321,662.227844 
	C545.365723,662.198303 544.788940,660.704407 544.785645,658.856445 
	C544.774841,652.695374 544.804321,646.534302 544.794495,640.373230 
	C544.790466,637.859192 546.082031,636.757019 548.511902,636.758911 
	C550.176819,636.760193 551.841797,636.708374 553.989807,636.677002 
z"/>
<path fill="#000000" opacity="1.000000" stroke="none" 
	d="
M297.428894,656.606201 
	C300.451416,655.696411 302.078125,658.470642 304.592255,658.598694 
	C307.296997,658.736450 310.505005,659.097107 311.243958,655.829895 
	C311.952881,652.695679 308.666901,652.552734 306.600586,651.773438 
	C304.893372,651.129517 303.079193,650.751648 301.408325,650.032959 
	C298.626648,648.836365 296.616455,646.877991 296.814362,643.596313 
	C297.015289,640.264832 298.934937,638.041809 302.031952,636.963867 
	C306.111603,635.543884 309.908356,636.343140 313.349213,638.859314 
	C314.301514,639.555603 315.228088,640.489990 314.403809,641.785278 
	C313.644012,642.979309 312.460907,642.903381 311.318573,642.298767 
	C309.410248,641.288635 307.570953,640.137085 305.255615,640.332214 
	C303.436340,640.485474 301.922699,641.173706 301.485596,643.009521 
	C301.003693,645.033630 302.407562,646.069641 304.096893,646.648132 
	C306.450348,647.453979 308.871307,648.067871 311.207428,648.917725 
	C313.956360,649.917725 315.603119,651.958679 315.746765,654.899963 
	C315.900574,658.050171 314.249268,660.261353 311.528259,661.687195 
	C305.799805,664.688721 298.057678,662.082153 297.428894,656.606201 
z"/>
<path fill="#000000" opacity="1.000000" stroke="none" 
	d="
M431.555756,655.737793 
	C433.875122,650.336853 436.023407,645.282166 438.255066,640.264526 
	C438.912720,638.785950 439.420319,636.956787 441.497467,636.883911 
	C443.576508,636.811096 444.227264,638.520752 444.909180,640.033569 
	C447.508179,645.799866 450.072479,651.581726 452.644135,657.360291 
	C453.248383,658.718018 453.764038,660.093384 453.198700,662.221680 
	C448.396637,661.584717 447.466461,655.299500 441.487549,655.579346 
	C435.968933,655.837646 434.620483,660.652344 430.946503,662.670349 
	C429.332794,659.584473 430.876495,657.921448 431.555756,655.737793 
M443.412628,646.496826 
	C442.865265,645.719482 442.830994,644.520264 441.343689,644.239258 
	C440.002075,646.183716 438.769714,648.228516 438.545837,650.787964 
	C440.567535,652.140198 442.380249,652.000183 444.149506,651.059387 
	C444.964355,649.509888 443.922943,648.374817 443.412628,646.496826 
z"/>
<path fill="#000000" opacity="1.000000" stroke="none" 
	d="
M703.137695,662.401245 
	C689.701050,662.320435 689.640259,662.320068 689.716187,649.139465 
	C689.798706,634.815735 687.727905,637.052307 702.126831,636.706604 
	C703.121643,636.682678 704.120422,636.732544 705.114441,636.795288 
	C706.352600,636.873413 707.498291,637.209106 707.525818,638.717102 
	C707.552673,640.192383 706.427612,640.740845 705.217957,640.821533 
	C702.403198,641.009460 699.579041,641.102478 696.757629,641.129150 
	C694.508545,641.150452 693.417786,642.088074 693.410706,644.425049 
	C693.403625,646.752319 694.435730,647.754578 696.722351,647.710876 
	C699.046753,647.666443 701.374451,647.688904 703.698425,647.758240 
	C705.008911,647.797241 706.620361,647.757263 706.638733,649.612244 
	C706.656616,651.412842 704.994873,651.606384 703.739624,651.661926 
	C701.599731,651.756348 699.444458,651.558838 697.298218,651.437561 
	C694.995239,651.307495 693.429993,651.895081 693.336426,654.630188 
	C693.244690,657.314270 694.199341,658.717896 697.045654,658.611206 
	C699.201782,658.530396 701.369202,658.530029 703.521973,658.656555 
	C705.057373,658.746826 707.458130,658.028564 707.626709,660.275818 
	C707.841309,663.137329 705.206604,662.187866 703.137695,662.401245 
z"/>
<path fill="#000000" opacity="1.000000" stroke="none" 
	d="
M665.723572,645.068359 
	C665.739990,636.794312 665.799927,636.713440 671.608582,636.635803 
	C680.863220,636.512146 685.161499,639.190186 685.307068,645.170715 
	C685.437256,650.517944 681.890686,654.143494 675.705627,654.194824 
	C671.882385,654.226624 669.643799,655.020020 669.983582,659.364929 
	C670.086060,660.675781 669.622437,662.186279 667.776001,661.978333 
	C666.080444,661.787476 665.845886,660.333862 665.824158,658.982117 
	C665.752197,654.507629 665.752563,650.032043 665.723572,645.068359 
M670.146118,647.169983 
	C669.986816,650.174133 671.786682,650.838928 674.282654,650.567078 
	C677.167114,650.252930 679.988464,649.692566 680.705200,646.241821 
	C681.231995,643.705872 679.744812,642.233887 677.638000,641.196655 
	C672.794006,638.811951 670.301880,640.512329 670.146118,647.169983 
z"/>
<path fill="#000000" opacity="1.000000" stroke="none" 
	d="
M350.706635,653.922485 
	C350.716888,649.282288 350.800140,645.126648 350.711853,640.974731 
	C350.649719,638.053528 351.861542,636.670959 354.834625,636.735962 
	C358.155975,636.808594 361.480865,636.703857 364.803314,636.747314 
	C366.452637,636.768860 368.563538,636.685120 368.438232,639.032898 
	C368.315308,641.336914 366.139191,640.954468 364.548950,641.056152 
	C363.224396,641.140869 361.887390,641.032349 360.563019,641.118652 
	C358.202148,641.272339 355.210022,640.479004 355.174805,644.436523 
	C355.136139,648.781799 358.384674,647.740784 360.875671,647.889160 
	C362.200378,647.968140 363.535278,647.882751 364.858887,647.971130 
	C366.091339,648.053528 367.203094,648.438721 367.201874,649.974304 
	C367.200714,651.442688 366.220551,651.999451 364.937317,652.086426 
	C363.613373,652.176147 362.265747,652.298706 360.956543,652.153625 
	C356.837433,651.696960 354.600189,652.977905 355.051392,657.601624 
	C355.210815,659.235718 355.588196,661.868042 353.027100,661.939758 
	C349.925842,662.026550 350.997253,659.170593 350.737122,657.395813 
	C350.594025,656.419556 350.708160,655.405579 350.706635,653.922485 
z"/>
<path fill="#000000" opacity="1.000000" stroke="none" 
	d="
M581.778320,656.636597 
	C581.085327,658.195251 580.695374,659.508545 579.966553,660.594360 
	C578.167114,663.275208 576.177368,663.329468 574.793030,660.316772 
	C571.746399,653.686279 568.886353,646.969910 565.970642,640.279663 
	C565.498657,639.196655 565.048035,637.951599 566.398315,637.215759 
	C567.836060,636.432312 569.082703,637.117249 569.714355,638.440613 
	C571.499329,642.180359 573.151001,645.983887 574.840027,649.769104 
	C575.499084,651.246155 575.808044,652.933777 577.563477,654.171082 
	C580.492615,649.931030 581.757690,645.125061 583.762207,640.675659 
	C584.545288,638.937317 585.003601,636.161926 587.594299,637.090088 
	C590.643921,638.182739 588.345825,640.395081 587.731567,641.994629 
	C585.888428,646.794128 583.874451,651.528137 581.778320,656.636597 
z"/>
<path fill="#000000" opacity="1.000000" stroke="none" 
	d="
M371.825989,638.086304 
	C377.598907,635.553711 383.403992,637.011597 389.121765,636.854431 
	C390.422241,636.818665 391.336670,637.557800 391.294098,639.013672 
	C391.250824,640.493591 390.198883,641.181641 388.969910,641.011597 
	C383.040070,640.190491 383.077606,643.943420 383.257935,648.074341 
	C383.409790,651.552307 383.331512,655.043701 383.251984,658.526794 
	C383.219849,659.934448 383.493683,661.888306 381.285950,661.817810 
	C379.341797,661.755798 379.123352,659.950439 379.084167,658.472961 
	C378.978638,654.493042 378.937531,650.507141 379.031952,646.527466 
	C379.107239,643.354370 378.648529,640.905457 374.602814,641.012390 
	C373.091705,641.052429 371.570160,640.526367 371.825989,638.086304 
z"/>
<path fill="#000000" opacity="1.000000" stroke="none" 
	d="
M633.422363,661.020630 
	C628.480469,663.308105 623.520081,662.060547 618.634705,662.099792 
	C616.743408,662.115051 616.228333,660.408447 616.196655,658.894043 
	C616.068604,652.769775 616.023193,646.642273 616.065918,640.516846 
	C616.076050,639.061218 616.319031,637.218384 618.321899,637.272827 
	C620.418701,637.329712 620.232361,639.230286 620.259033,640.666504 
	C620.326782,644.309509 620.585266,647.984314 620.222473,651.591492 
	C619.718140,656.606018 621.503784,658.502441 626.613281,658.113403 
	C628.994751,657.932129 632.505493,656.444580 633.422363,661.020630 
z"/>
</svg>